<svg xmlns="http://www.w3.org/2000/svg" xmlns:xlink="http://www.w3.org/1999/xlink" viewBox="0 0 430 430" width="430" height="430" preserveAspectRatio="xMidYMid meet" style="width: 100%; height: 100%; transform: translate3d(0px, 0px, 0px); content-visibility: visible;"><defs><clipPath id="__lottie_element_10"><rect width="430" height="430" x="0" y="0"/></clipPath><clipPath id="__lottie_element_12"><path d="M0,0 L430,0 L430,430 L0,430z"/></clipPath><g id="__lottie_element_28"><g transform="matrix(0.9135081768035889,0.4068203568458557,-0.4068203568458557,0.9135081768035889,111.03266143798828,-111.353271484375)" opacity="1" style="display: block;"><g opacity="1" transform="matrix(1,0,0,1,250,238.6179962158203)"><path fill="rgb(100,110,120)" fill-opacity="1" d=" M18.99276351928711,-63.10333251953125 C18.99276351928711,-63.10333251953125 18.99276351928711,-58.9573974609375 18.99276351928711,-58.9573974609375 C18.99276351928711,-58.9573974609375 19.549999237060547,41.16999816894531 19.549999237060547,41.16999816894531 C19.549999237060547,49.784000396728516 11.281999588012695,56.75199890136719 1.0809999704360962,56.75199890136719 C1.0809999704360962,56.75199890136719 -1.0809999704360962,56.75199890136719 -1.0809999704360962,56.75199890136719 C-11.281999588012695,56.75199890136719 -19.549999237060547,49.784000396728516 -19.549999237060547,41.16999816894531 C-19.549999237060547,41.16999816894531 -16.691604614257812,-58.9573974609375 -16.691604614257812,-58.9573974609375 C-16.691604614257812,-58.9573974609375 -16.691604614257812,-63.10333251953125 -16.691604614257812,-63.10333251953125"/></g><g opacity="1" transform="matrix(1,0,0,1,250,144.97300720214844)"><path fill="rgb(242,76,0)" fill-opacity="1" d=" M-36.951717376708984,-3.128446102142334 C-36.951717376708984,17.91465187072754 -19.892126083374023,34.9742431640625 1.1509727239608765,34.9742431640625 C22.19407081604004,34.9742431640625 39.25287628173828,17.91465187072754 39.25287628173828,-3.128446102142334 C39.25287628173828,-24.171545028686523 22.19407081604004,-41.230350494384766 1.1509727239608765,-41.230350494384766 C-19.892126083374023,-41.230350494384766 -36.951717376708984,-24.171545028686523 -36.951717376708984,-3.128446102142334z"/></g></g></g><filter id="__lottie_element_34" filterUnits="objectBoundingBox" x="0%" y="0%" width="100%" height="100%"><feComponentTransfer in="SourceGraphic"><feFuncA type="table" tableValues="1.0 0.0"/></feComponentTransfer></filter><mask id="__lottie_element_28_2" mask-type="alpha"><g filter="url(#__lottie_element_34)"><rect width="430" height="430" x="0" y="0" fill="#ffffff" opacity="0"/><use xmlns:ns1="http://www.w3.org/1999/xlink" ns1:href="#__lottie_element_28"/></g></mask></defs><g clip-path="url(#__lottie_element_10)"><g clip-path="url(#__lottie_element_12)" transform="matrix(1,0,0,1,0,0)" opacity="1" style="display: block;"><g transform="matrix(1,0,0,1,215,221.75)" opacity="1" style="display: block;"><g opacity="1" transform="matrix(1,0,0,1,0,0)"><path class="tertiary" fill="rgb(58,51,71)" fill-opacity="1" d=" M159.98800659179688,11.70300006866455 C159.98800659179688,11.70300006866455 159.98800659179688,68.36100006103516 159.98800659179688,68.36100006103516 C159.98800659179688,68.36100006103516 159.9949951171875,68.35600280761719 159.9949951171875,68.35600280761719 C159.9949951171875,73.72200012207031 157.24200439453125,79.08899688720703 151.76400756835938,81.9540023803711 C151.76400756835938,81.9540023803711 29.26300048828125,146.23699951171875 29.26300048828125,146.23699951171875 C10.942000389099121,155.8520050048828 -10.942000389099121,155.8520050048828 -29.26300048828125,146.23699951171875 C-29.26300048828125,146.23699951171875 -151.76400756835938,81.9540023803711 -151.76400756835938,81.9540023803711 C-157.24200439453125,79.08899688720703 -159.9949951171875,73.72200012207031 -159.9949951171875,68.35600280761719 C-159.9949951171875,68.35600280761719 -159.98800659179688,68.36100006103516 -159.98800659179688,68.36100006103516 C-159.98800659179688,68.36100006103516 -159.98800659179688,11.70300006866455 -159.98800659179688,11.70300006866455"/></g><g opacity="0.5" transform="matrix(1,0,0,1,0,0)" style="mix-blend-mode: multiply;"><path class="tertiary" fill="rgb(58,51,71)" fill-opacity="1" d=" M159.98800659179688,11.70300006866455 C159.98800659179688,11.70300006866455 159.98800659179688,68.36100006103516 159.98800659179688,68.36100006103516 C159.98800659179688,68.36100006103516 159.9949951171875,68.35600280761719 159.9949951171875,68.35600280761719 C159.9949951171875,73.72200012207031 157.24200439453125,79.08899688720703 151.76400756835938,81.9540023803711 C151.76400756835938,81.9540023803711 29.26300048828125,146.23699951171875 29.26300048828125,146.23699951171875 C10.942000389099121,155.8520050048828 -10.942000389099121,155.8520050048828 -29.26300048828125,146.23699951171875 C-29.26300048828125,146.23699951171875 -151.76400756835938,81.9540023803711 -151.76400756835938,81.9540023803711 C-157.24200439453125,79.08899688720703 -159.9949951171875,73.72200012207031 -159.9949951171875,68.35600280761719 C-159.9949951171875,68.35600280761719 -159.98800659179688,68.36100006103516 -159.98800659179688,68.36100006103516 C-159.98800659179688,68.36100006103516 -159.98800659179688,11.70300006866455 -159.98800659179688,11.70300006866455"/></g><g opacity="1" transform="matrix(1,0,0,1,0,0)"><path class="tertiary" fill="rgb(58,51,71)" fill-opacity="1" d=" M151.77000427246094,25.29599952697754 C151.77000427246094,25.29599952697754 29.264999389648438,89.5790023803711 29.264999389648438,89.5790023803711 C10.9399995803833,99.19499969482422 -10.9399995803833,99.19499969482422 -29.264999389648438,89.5790023803711 C-29.264999389648438,89.5790023803711 -151.77000427246094,25.29599952697754 -151.77000427246094,25.29599952697754 C-162.72799682617188,19.54599952697754 -162.72799682617188,3.8589999675750732 -151.77000427246094,-1.8910000324249268 C-151.77000427246094,-1.8910000324249268 -29.264999389648438,-66.17400360107422 -29.264999389648438,-66.17400360107422 C-10.9399995803833,-75.79000091552734 10.9399995803833,-75.79000091552734 29.264999389648438,-66.17400360107422 C29.264999389648438,-66.17400360107422 151.77000427246094,-1.8910000324249268 151.77000427246094,-1.8910000324249268 C162.72799682617188,3.8589999675750732 162.72799682617188,19.54599952697754 151.77000427246094,25.29599952697754z"/></g><g opacity="1" transform="matrix(1,0,0,1,0,0)"><path class="secondary" fill="rgb(242,76,0)" fill-opacity="1" d=" M-104.07499694824219,9.402000427246094 C-104.07499694824219,17.19300079345703 -93.39199829101562,23.509000778198242 -80.21299743652344,23.509000778198242 C-67.03399658203125,23.509000778198242 -56.349998474121094,17.19300079345703 -56.349998474121094,9.402000427246094 C-56.349998474121094,1.6109999418258667 -67.03399658203125,-4.703999996185303 -80.21299743652344,-4.703999996185303 C-93.39199829101562,-4.703999996185303 -104.07499694824219,1.6109999418258667 -104.07499694824219,9.402000427246094z"/></g><g opacity="0.5" transform="matrix(1,0,0,1,0,0)" style="mix-blend-mode: multiply;"><path class="secondary" fill="rgb(242,76,0)" fill-opacity="1" d=" M-92.46199798583984,8.845000267028809 C-92.46199798583984,2.6440000534057617 -85.68800354003906,-2.61899995803833 -76.27899932861328,-4.510000228881836 C-77.55899810791016,-4.636000156402588 -78.87300109863281,-4.703999996185303 -80.21299743652344,-4.703999996185303 C-93.39199829101562,-4.703999996185303 -104.07499694824219,1.6109999418258667 -104.07499694824219,9.402000427246094 C-104.07499694824219,17.191999435424805 -93.39199829101562,23.509000778198242 -80.21299743652344,23.509000778198242 C-77.5250015258789,23.509000778198242 -74.94400024414062,23.240999221801758 -72.53299713134766,22.756999969482422 C-83.83899688720703,21.64900016784668 -92.46199798583984,15.843999862670898 -92.46199798583984,8.845000267028809z"/></g></g><g transform="matrix(1,0,0,1,-35,-35)" opacity="1" style="display: block;"><g opacity="1" transform="matrix(1,0,0,1,409.9880065917969,296.7040100097656)"><path stroke-linecap="round" stroke-linejoin="round" fill-opacity="0" class="primary" stroke="rgb(18,19,49)" stroke-opacity="1" stroke-width="7" d=" M-8.218000411987305,-14.736000061035156 C-8.218000411987305,-14.736000061035156 -130.72300720214844,49.547000885009766 -130.72300720214844,49.547000885009766 C-149.04800415039062,59.16299819946289 -170.9290008544922,59.16299819946289 -189.25399780273438,49.547000885009766 C-189.25399780273438,49.547000885009766 -311.75799560546875,-14.736000061035156 -311.75799560546875,-14.736000061035156 C-322.71600341796875,-20.486000061035156 -322.71600341796875,-36.17300033569336 -311.75799560546875,-41.92300033569336 C-311.75799560546875,-41.92300033569336 -189.25399780273438,-106.20600128173828 -189.25399780273438,-106.20600128173828 C-170.9290008544922,-115.8219985961914 -149.04800415039062,-115.8219985961914 -130.72300720214844,-106.20600128173828 C-130.72300720214844,-106.20600128173828 -8.218000411987305,-41.92300033569336 -8.218000411987305,-41.92300033569336 C2.740000009536743,-36.17300033569336 2.740000009536743,-20.486000061035156 -8.218000411987305,-14.736000061035156z M0.007000000216066837,28.323999404907227 C0.007000000216066837,33.689998626708984 -2.746000051498413,39.05699920654297 -8.223999977111816,41.922000885009766 C-8.223999977111816,41.922000885009766 -130.72500610351562,106.20500183105469 -130.72500610351562,106.20500183105469 C-149.04600524902344,115.81999969482422 -170.92999267578125,115.81999969482422 -189.25100708007812,106.20500183105469 C-189.25100708007812,106.20500183105469 -311.75201416015625,41.922000885009766 -311.75201416015625,41.922000885009766 C-317.2300109863281,39.05699920654297 -319.9830017089844,33.689998626708984 -319.9830017089844,28.323999404907227 M-319.97601318359375,28.32900047302246 C-319.97601318359375,28.32900047302246 -319.97601318359375,-28.32900047302246 -319.97601318359375,-28.32900047302246 M0,28.32900047302246 C0,28.32900047302246 0,-28.32900047302246 0,-28.32900047302246"/></g><g opacity="1" transform="matrix(1,0,0,1,169.78700256347656,266.0740051269531)"><path stroke-linecap="round" stroke-linejoin="round" fill-opacity="0" class="primary" stroke="rgb(18,19,49)" stroke-opacity="1" stroke-width="7" d=" M-23.86199951171875,0 C-23.86199951171875,7.790999889373779 -13.178999900817871,14.105999946594238 0,14.105999946594238 C13.178999900817871,14.105999946594238 23.86199951171875,7.790999889373779 23.86199951171875,0 C23.86199951171875,-7.790999889373779 13.178999900817871,-14.105999946594238 0,-14.105999946594238 C-13.178999900817871,-14.105999946594238 -23.86199951171875,-7.790999889373779 -23.86199951171875,0z"/></g></g><g transform="matrix(0.9135081768035889,0.4068203568458557,-0.4068203568458557,0.9135081768035889,100.53266143798828,-112.48739624023438)" opacity="1" style="display: block;"><g opacity="1" transform="matrix(1,0,0,1,250,238.6179962158203)"><path class="quaternary" fill="rgb(100,110,120)" fill-opacity="1" d=" M18.99276351928711,-63.10333251953125 C18.99276351928711,-63.10333251953125 18.99276351928711,-58.9573974609375 18.99276351928711,-58.9573974609375 C18.99276351928711,-58.9573974609375 19.549999237060547,41.16999816894531 19.549999237060547,41.16999816894531 C19.549999237060547,49.784000396728516 11.281999588012695,56.75199890136719 1.0809999704360962,56.75199890136719 C1.0809999704360962,56.75199890136719 -1.0809999704360962,56.75199890136719 -1.0809999704360962,56.75199890136719 C-11.281999588012695,56.75199890136719 -19.549999237060547,49.784000396728516 -19.549999237060547,41.16999816894531 C-19.549999237060547,41.16999816894531 -16.691604614257812,-58.9573974609375 -16.691604614257812,-58.9573974609375 C-16.691604614257812,-58.9573974609375 -16.691604614257812,-63.10333251953125 -16.691604614257812,-63.10333251953125"/></g><g opacity="1" transform="matrix(1,0,0,1,250,144.97300720214844)"><path class="secondary" fill="rgb(242,76,0)" fill-opacity="1" d=" M-36.951717376708984,-3.128446102142334 C-36.951717376708984,17.91465187072754 -19.892126083374023,34.9742431640625 1.1509727239608765,34.9742431640625 C22.19407081604004,34.9742431640625 39.25287628173828,17.91465187072754 39.25287628173828,-3.128446102142334 C39.25287628173828,-24.171545028686523 22.19407081604004,-41.230350494384766 1.1509727239608765,-41.230350494384766 C-19.892126083374023,-41.230350494384766 -36.951717376708984,-24.171545028686523 -36.951717376708984,-3.128446102142334z"/></g></g><g mask="url(#__lottie_element_28_2)" style="mix-blend-mode: multiply; display: block;"><g transform="matrix(0.9135081768035889,0.4068203568458557,-0.4068203568458557,0.9135081768035889,100.53266143798828,-112.48739624023438)" opacity="0.5"><g opacity="1" transform="matrix(1,0,0,1,250,238.6179962158203)"><path class="quaternary" fill="rgb(100,110,120)" fill-opacity="1" d=" M18.99276351928711,-63.10333251953125 C18.99276351928711,-63.10333251953125 18.99276351928711,-58.9573974609375 18.99276351928711,-58.9573974609375 C18.99276351928711,-58.9573974609375 19.549999237060547,41.16999816894531 19.549999237060547,41.16999816894531 C19.549999237060547,49.784000396728516 11.281999588012695,56.75199890136719 1.0809999704360962,56.75199890136719 C1.0809999704360962,56.75199890136719 -1.0809999704360962,56.75199890136719 -1.0809999704360962,56.75199890136719 C-11.281999588012695,56.75199890136719 -19.549999237060547,49.784000396728516 -19.549999237060547,41.16999816894531 C-19.549999237060547,41.16999816894531 -16.691604614257812,-58.9573974609375 -16.691604614257812,-58.9573974609375 C-16.691604614257812,-58.9573974609375 -16.691604614257812,-63.10333251953125 -16.691604614257812,-63.10333251953125"/></g><g opacity="1" transform="matrix(1,0,0,1,250,144.97300720214844)"><path class="secondary" fill="rgb(242,76,0)" fill-opacity="1" d=" M-36.951717376708984,-3.128446102142334 C-36.951717376708984,17.91465187072754 -19.892126083374023,34.9742431640625 1.1509727239608765,34.9742431640625 C22.19407081604004,34.9742431640625 39.25287628173828,17.91465187072754 39.25287628173828,-3.128446102142334 C39.25287628173828,-24.171545028686523 22.19407081604004,-41.230350494384766 1.1509727239608765,-41.230350494384766 C-19.892126083374023,-41.230350494384766 -36.951717376708984,-24.171545028686523 -36.951717376708984,-3.128446102142334z"/></g></g></g><g transform="matrix(0.9135081768035889,0.4068203568458557,-0.4068203568458557,0.9135081768035889,100.53266143798828,-112.48739624023438)" opacity="1" style="display: block;"><g opacity="1" transform="matrix(1,0,0,1,250,238.6179962158203)"><path stroke-linecap="round" stroke-linejoin="round" fill-opacity="0" class="primary" stroke="rgb(18,19,49)" stroke-opacity="1" stroke-width="7" d=" M18.99276351928711,-63.10333251953125 C18.99276351928711,-63.10333251953125 18.99276351928711,-58.9573974609375 18.99276351928711,-58.9573974609375 C18.99276351928711,-58.9573974609375 19.549999237060547,41.16999816894531 19.549999237060547,41.16999816894531 C19.549999237060547,49.784000396728516 11.281999588012695,56.75199890136719 1.0809999704360962,56.75199890136719 C1.0809999704360962,56.75199890136719 -1.0809999704360962,56.75199890136719 -1.0809999704360962,56.75199890136719 C-11.281999588012695,56.75199890136719 -19.549999237060547,49.784000396728516 -19.549999237060547,41.16999816894531 C-19.549999237060547,41.16999816894531 -16.691604614257812,-58.9573974609375 -16.691604614257812,-58.9573974609375 C-16.691604614257812,-58.9573974609375 -16.691604614257812,-63.10333251953125 -16.691604614257812,-63.10333251953125"/></g><g opacity="1" transform="matrix(1,0,0,1,250,144.97300720214844)"><path stroke-linecap="round" stroke-linejoin="round" fill-opacity="0" class="primary" stroke="rgb(18,19,49)" stroke-opacity="1" stroke-width="7" d=" M-36.951717376708984,-3.128446102142334 C-36.951717376708984,17.91465187072754 -19.892126083374023,34.9742431640625 1.1509727239608765,34.9742431640625 C22.19407081604004,34.9742431640625 39.25287628173828,17.91465187072754 39.25287628173828,-3.128446102142334 C39.25287628173828,-24.171545028686523 22.19407081604004,-41.230350494384766 1.1509727239608765,-41.230350494384766 C-19.892126083374023,-41.230350494384766 -36.951717376708984,-24.171545028686523 -36.951717376708984,-3.128446102142334z"/></g></g></g></g></svg>